<svg width="369" height="369" viewBox="0 0 369 369" fill="none" xmlns="http://www.w3.org/2000/svg">
<path d="M369 282.211H0V282.396H369V282.211Z" fill="#EBEBEB"/>
<path d="M332.026 294.086H307.584V294.27H332.026V294.086Z" fill="#EBEBEB"/>
<path d="M244.44 296.093H238.027V296.278H244.44V296.093Z" fill="#EBEBEB"/>
<path d="M306.846 287.237H292.683V287.421H306.846V287.237Z" fill="#EBEBEB"/>
<path d="M70.5897 288.477H38.7155V288.661H70.5897V288.477Z" fill="#EBEBEB"/>
<path d="M81.8368 288.477H77.1653V288.661H81.8368V288.477Z" fill="#EBEBEB"/>
<path d="M166.161 291.591H97.0248V291.776H166.161V291.591Z" fill="#EBEBEB"/>
<path d="M174.906 249.296H32.4056C31.2892 249.294 30.2193 248.85 29.4306 248.06C28.6419 247.27 28.199 246.199 28.199 245.082V44.7671C28.2087 43.6572 28.6559 42.5959 29.4436 41.8138C30.2312 41.0317 31.2956 40.5919 32.4056 40.59H174.906C176.024 40.59 177.095 41.034 177.886 41.8243C178.676 42.6145 179.12 43.6864 179.12 44.804V245.082C179.12 246.2 178.676 247.272 177.886 248.062C177.095 248.852 176.024 249.296 174.906 249.296ZM32.4056 40.7376C31.3382 40.7396 30.3152 41.165 29.5611 41.9204C28.807 42.6759 28.3835 43.6997 28.3835 44.7671V245.082C28.3835 246.15 28.807 247.174 29.5611 247.929C30.3152 248.685 31.3382 249.11 32.4056 249.112H174.906C175.974 249.11 176.998 248.685 177.753 247.93C178.508 247.174 178.934 246.151 178.935 245.082V44.7671C178.934 43.699 178.508 42.6752 177.753 41.92C176.998 41.1647 175.974 40.7396 174.906 40.7376H32.4056Z" fill="#EBEBEB"/>
<path d="M334.543 249.296H192.035C190.918 249.294 189.847 248.85 189.057 248.06C188.268 247.27 187.823 246.199 187.821 245.082V44.7671C187.833 43.6565 188.282 42.5952 189.07 41.8133C189.859 41.0314 190.924 40.5919 192.035 40.59H334.543C335.651 40.5939 336.714 41.0345 337.5 41.8164C338.286 42.5983 338.732 43.6584 338.742 44.7671V245.082C338.742 246.197 338.3 247.267 337.513 248.057C336.726 248.847 335.658 249.293 334.543 249.296ZM192.035 40.7376C190.967 40.7396 189.943 41.1647 189.188 41.92C188.433 42.6752 188.007 43.699 188.005 44.7671V245.082C188.007 246.151 188.433 247.174 189.188 247.93C189.943 248.685 190.967 249.11 192.035 249.112H334.543C335.611 249.11 336.635 248.685 337.39 247.93C338.145 247.174 338.57 246.151 338.572 245.082V44.7671C338.57 43.699 338.145 42.6752 337.39 41.92C336.635 41.1647 335.611 40.7396 334.543 40.7376H192.035Z" fill="#EBEBEB"/>
<path d="M197.622 282.211H223.525V185.733H197.622V282.211Z" fill="#E6E6E6"/>
<path d="M201.932 282.211H197.622V273.525H206.456L201.932 282.211Z" fill="#F0F0F0"/>
<path d="M303.052 282.211H328.956V185.733H303.052V282.211Z" fill="#E6E6E6"/>
<path d="M197.622 278.875H306.816V185.733H197.622V278.875Z" fill="#F0F0F0"/>
<path d="M200.972 215.4H303.473V189.858H200.972V215.4Z" fill="#E6E6E6"/>
<path d="M247.378 197.784H257.06C261.267 197.784 265.289 194.633 268.182 189.068H236.256C239.149 194.648 243.171 197.784 247.378 197.784Z" fill="#F0F0F0"/>
<path d="M302.506 282.211H306.816V273.525H297.982L302.506 282.211Z" fill="#F0F0F0"/>
<path d="M200.972 245.075H303.473V219.533H200.972V245.075Z" fill="#E6E6E6"/>
<path d="M247.378 227.466H257.06C261.267 227.466 265.289 224.315 268.182 218.751H236.256C239.149 224.352 243.171 227.466 247.378 227.466Z" fill="#F0F0F0"/>
<path d="M200.972 274.75H303.473V249.208H200.972V274.75Z" fill="#E6E6E6"/>
<path d="M247.378 257.141H257.06C261.267 257.141 265.289 253.99 268.182 248.426H236.256C239.149 253.99 243.171 257.141 247.378 257.141Z" fill="#F0F0F0"/>
<path d="M57.5566 163.851H156.478V63.7558L57.5566 63.7558L57.5566 163.851Z" fill="#E6E6E6"/>
<path d="M50.6858 163.851H154.655V63.7558L50.6858 63.7558L50.6858 163.851Z" fill="#F0F0F0"/>
<path d="M145.954 155.142V72.4642H59.409V155.142H145.954Z" fill="white"/>
<path d="M102.08 83.394L86.1984 99.3053C82.3605 103.153 80.2053 108.365 80.2053 113.8C80.2053 119.234 82.3605 124.446 86.1984 128.294L102.08 144.183C102.158 144.261 102.25 144.322 102.351 144.364C102.452 144.406 102.561 144.428 102.671 144.428C102.78 144.428 102.889 144.406 102.99 144.364C103.091 144.322 103.183 144.261 103.261 144.183L119.15 128.294C122.988 124.446 125.143 119.234 125.143 113.8C125.143 108.365 122.988 103.153 119.15 99.3053L103.268 83.394C103.11 83.2385 102.896 83.1514 102.674 83.1514C102.452 83.1514 102.239 83.2385 102.08 83.394ZM87.3792 127.084C83.8554 123.55 81.8766 118.764 81.8766 113.774C81.8766 108.784 83.8554 103.997 87.3792 100.464V127.084ZM117.969 127.084V100.493C121.493 104.027 123.472 108.813 123.472 113.803C123.472 118.793 121.493 123.58 117.969 127.113V127.084Z" fill="#F0F0F0"/>
<path d="M300.255 151.29H244.986L241.835 183.924H297.104L300.255 151.29Z" fill="#E6E6E6"/>
<path d="M297.104 183.924L296.883 185.732H241.606L241.835 183.924H297.104Z" fill="#E6E6E6"/>
<path d="M298.558 151.29H243.289L240.13 183.924H295.399L298.558 151.29Z" fill="#F0F0F0"/>
<path d="M294.285 181.799L296.595 153.504C296.601 153.41 296.588 153.316 296.556 153.227C296.524 153.138 296.475 153.056 296.41 152.987C296.346 152.918 296.269 152.863 296.182 152.825C296.096 152.787 296.003 152.767 295.908 152.766H245.097C244.923 152.765 244.755 152.83 244.626 152.948C244.498 153.066 244.418 153.227 244.403 153.401L242.064 181.688C242.058 181.783 242.071 181.878 242.104 181.967C242.136 182.057 242.186 182.139 242.251 182.208C242.316 182.277 242.394 182.332 242.482 182.37C242.569 182.407 242.663 182.426 242.758 182.426H293.569C293.746 182.435 293.92 182.374 294.053 182.257C294.187 182.14 294.27 181.976 294.285 181.799Z" fill="white"/>
<path d="M281.001 183.924L280.779 185.732H219.917L220.138 183.924H281.001Z" fill="#F0F0F0"/>
<path d="M206.706 133.844H310.491V64.8481L206.706 64.8481V133.844Z" fill="#E6E6E6"/>
<path d="M204.404 133.844H308.189V64.8481L204.404 64.8481V133.844Z" fill="#F5F5F5"/>
<path d="M304.049 129.194V69.5049H208.544V129.194H304.049Z" fill="white"/>
<path d="M210.278 129.187V69.4975H208.537V129.187H210.278Z" fill="#E6E6E6"/>
<path d="M206.116 121.276L306.477 121.276V115.032L206.116 115.032V121.276Z" fill="#F5F5F5"/>
<path d="M199.887 57.1581H315.015C315.183 57.1601 315.343 57.2275 315.462 57.3462C315.581 57.4648 315.648 57.6251 315.65 57.7928C315.65 57.9612 315.583 58.1226 315.464 58.2416C315.345 58.3606 315.184 58.4275 315.015 58.4275H199.887C199.803 58.4285 199.72 58.4128 199.642 58.3813C199.564 58.3499 199.493 58.3033 199.434 58.2442C199.374 58.1852 199.327 58.1149 199.294 58.0374C199.262 57.9599 199.245 57.8768 199.245 57.7928C199.247 57.6238 199.316 57.4624 199.436 57.3436C199.556 57.2248 199.718 57.1581 199.887 57.1581Z" fill="#E6E6E6"/>
<path d="M197.659 57.7928C197.659 58.1078 197.752 58.4157 197.927 58.6777C198.101 58.9397 198.35 59.144 198.641 59.2648C198.932 59.3857 199.252 59.4177 199.561 59.3568C199.87 59.2959 200.154 59.1448 200.377 58.9226C200.6 58.7004 200.753 58.417 200.815 58.1083C200.877 57.7996 200.847 57.4793 200.727 57.1879C200.608 56.8965 200.405 56.647 200.144 56.471C199.882 56.2949 199.575 56.2002 199.26 56.1987C199.05 56.1978 198.842 56.2383 198.648 56.318C198.453 56.3976 198.277 56.5149 198.128 56.663C197.979 56.8111 197.861 56.9872 197.781 57.1811C197.7 57.375 197.659 57.5829 197.659 57.7928Z" fill="#E6E6E6"/>
<path d="M309.628 61.3647C309.854 61.3647 310.072 61.2758 310.233 61.1171C310.395 60.9583 310.488 60.7425 310.491 60.516V58.671C310.491 58.442 310.4 58.2224 310.239 58.0605C310.077 57.8985 309.857 57.8076 309.628 57.8076C309.515 57.8076 309.403 57.8299 309.299 57.8734C309.194 57.9169 309.1 57.9806 309.02 58.0609C308.94 58.1412 308.877 58.2364 308.835 58.3411C308.792 58.4459 308.771 58.558 308.772 58.671V60.516C308.776 60.7412 308.867 60.9559 309.027 61.1145C309.187 61.273 309.403 61.3628 309.628 61.3647Z" fill="#E6E6E6"/>
<path d="M209.496 61.3647C209.717 61.3554 209.926 61.2626 210.081 61.105C210.235 60.9474 210.325 60.7369 210.33 60.516V58.671C210.33 58.442 210.239 58.2224 210.077 58.0605C209.915 57.8985 209.696 57.8076 209.467 57.8076C209.354 57.8076 209.242 57.8299 209.137 57.8734C209.033 57.9169 208.938 57.9806 208.859 58.0609C208.779 58.1412 208.716 58.2364 208.674 58.3411C208.631 58.4459 208.61 58.558 208.611 58.671V60.516C208.612 60.63 208.637 60.7426 208.683 60.8471C208.728 60.9516 208.794 61.046 208.876 61.1249C208.959 61.2039 209.056 61.2657 209.162 61.3068C209.269 61.348 209.382 61.3677 209.496 61.3647Z" fill="#E6E6E6"/>
<path opacity="0.4" d="M200.094 124.825L306.477 124.825V57.7928L200.094 57.7928V124.825Z" fill="#E0E0E0"/>
<path d="M297.79 57.7928C297.79 58.1081 297.884 58.4163 298.059 58.6784C298.234 58.9406 298.483 59.1449 298.774 59.2655C299.066 59.3862 299.386 59.4178 299.695 59.3563C300.005 59.2948 300.289 59.1429 300.512 58.92C300.735 58.6971 300.886 58.413 300.948 58.1038C301.009 57.7946 300.978 57.4741 300.857 57.1828C300.737 56.8915 300.532 56.6425 300.27 56.4674C300.008 56.2922 299.7 56.1987 299.384 56.1987C298.962 56.1987 298.556 56.3667 298.257 56.6656C297.958 56.9646 297.79 57.37 297.79 57.7928Z" fill="#E6E6E6"/>
<path d="M147.231 277.429H155.762V203.43H147.231V277.429Z" fill="#F0F0F0"/>
<path d="M54.6858 282.115H152.486V277.429H54.6858V282.115Z" fill="#F0F0F0"/>
<path d="M147.231 203.43H51.4091V277.429H147.231V203.43Z" fill="#F5F5F5"/>
<path d="M135.268 212.537H63.3721C60.47 212.537 58.1175 214.889 58.1175 217.791V231.548C58.1175 234.45 60.47 236.802 63.3721 236.802H135.268C138.17 236.802 140.523 234.45 140.523 231.548V217.791C140.523 214.889 138.17 212.537 135.268 212.537Z" fill="#F0F0F0"/>
<path d="M135.268 244.049H63.3721C60.47 244.049 58.1175 246.402 58.1175 249.304V263.06C58.1175 265.962 60.47 268.315 63.3721 268.315H135.268C138.17 268.315 140.523 265.962 140.523 263.06V249.304C140.523 246.402 138.17 244.049 135.268 244.049Z" fill="#F0F0F0"/>
<path d="M81.4678 226.337H117.172C117.613 226.337 118.036 226.163 118.349 225.851C118.662 225.54 118.838 225.118 118.84 224.677C118.838 224.235 118.662 223.812 118.349 223.5C118.037 223.187 117.614 223.011 117.172 223.009H81.4678C81.0261 223.011 80.603 223.187 80.2906 223.5C79.9782 223.812 79.8019 224.235 79.7999 224.677C79.8019 225.118 79.9785 225.54 80.291 225.851C80.6036 226.163 81.0267 226.337 81.4678 226.337Z" fill="#F5F5F5"/>
<path d="M81.4678 257.85H117.172C117.613 257.85 118.036 257.675 118.349 257.364C118.662 257.053 118.838 256.63 118.84 256.189C118.838 255.748 118.662 255.325 118.349 255.012C118.037 254.7 117.614 254.523 117.172 254.521H81.4678C81.0261 254.523 80.603 254.7 80.2906 255.012C79.9782 255.325 79.8019 255.748 79.7999 256.189C79.8019 256.63 79.9785 257.053 80.291 257.364C80.6036 257.675 81.0267 257.85 81.4678 257.85Z" fill="#F5F5F5"/>
<path d="M184.5 315.539C263.527 315.539 327.591 311.799 327.591 307.185C327.591 302.571 263.527 298.831 184.5 298.831C105.473 298.831 41.4092 302.571 41.4092 307.185C41.4092 311.799 105.473 315.539 184.5 315.539Z" fill="#F5F5F5"/>
<path d="M216.123 74.8701H79.7409L90.3386 260.603H226.714L216.123 74.8701Z" fill="#263238"/>
<path d="M218.773 74.8701H82.3903L92.988 260.603H229.37L218.773 74.8701Z" fill="#C8C9D2"/>
<path opacity="0.5" d="M209.378 81.1136H88.6264L97.2832 249.237H221.171L209.378 81.1136Z" fill="black"/>
<path d="M88.6264 81.1136C97.6005 137.157 91.4456 193.201 100.434 249.237H224.308C215.334 193.201 221.489 137.157 212.5 81.1136H88.6264Z" fill="white"/>
<g opacity="0.3">
<path d="M113.955 131.489C116.69 131.511 119.313 132.582 121.282 134.481C123.251 136.381 124.417 138.963 124.537 141.696C124.593 143.011 124.38 144.323 123.911 145.553C123.443 146.782 122.73 147.904 121.814 148.849C120.899 149.794 119.8 150.543 118.586 151.05C117.372 151.558 116.067 151.812 114.752 151.799C112.033 151.777 109.427 150.709 107.475 148.817C105.522 146.925 104.373 144.354 104.265 141.637C104.208 140.326 104.416 139.017 104.876 137.789C105.336 136.56 106.039 135.437 106.944 134.486C107.851 133.543 108.94 132.796 110.145 132.288C111.351 131.781 112.647 131.524 113.955 131.534M113.881 129.401C112.29 129.391 110.714 129.706 109.249 130.326C107.784 130.945 106.461 131.858 105.36 133.006C104.26 134.155 103.405 135.516 102.849 137.007C102.293 138.497 102.046 140.085 102.124 141.674C102.253 144.954 103.64 148.058 105.996 150.344C108.353 152.629 111.499 153.919 114.781 153.947C116.379 153.96 117.963 153.649 119.437 153.032C120.911 152.415 122.245 151.505 123.357 150.358C124.47 149.21 125.337 147.849 125.908 146.356C126.479 144.864 126.741 143.271 126.678 141.674C126.519 138.38 125.104 135.271 122.724 132.988C120.344 130.706 117.179 129.422 113.881 129.401Z" fill="#C8C9D2"/>
</g>
<path d="M182.448 223.555H143.334C143.042 223.55 142.751 223.607 142.483 223.724C142.214 223.84 141.973 224.012 141.776 224.228C141.579 224.445 141.431 224.701 141.341 224.979C141.25 225.257 141.221 225.552 141.253 225.843C141.324 226.465 141.619 227.04 142.081 227.462C142.544 227.884 143.144 228.124 143.77 228.138H182.884C183.177 228.143 183.467 228.086 183.736 227.969C184.004 227.852 184.245 227.679 184.441 227.462C184.637 227.244 184.783 226.987 184.871 226.708C184.959 226.428 184.986 226.133 184.95 225.843C184.881 225.223 184.589 224.65 184.129 224.229C183.669 223.809 183.072 223.569 182.448 223.555Z" fill="#E0E0E0"/>
<path d="M203.371 213.924H142.545C142.25 213.919 141.958 213.975 141.687 214.091C141.416 214.206 141.173 214.377 140.973 214.593C140.773 214.809 140.621 215.065 140.527 215.344C140.433 215.623 140.398 215.919 140.427 216.212C140.48 216.832 140.761 217.41 141.217 217.834C141.672 218.259 142.269 218.498 142.892 218.507H203.688C203.983 218.516 204.276 218.461 204.548 218.348C204.821 218.235 205.066 218.066 205.268 217.851C205.471 217.636 205.625 217.381 205.722 217.103C205.818 216.824 205.854 216.528 205.828 216.234C205.78 215.612 205.502 215.03 205.047 214.603C204.593 214.175 203.995 213.933 203.371 213.924Z" fill="#E0E0E0"/>
<g opacity="0.3">
<path d="M115.202 171.216C117.917 171.235 120.52 172.304 122.466 174.198C124.413 176.091 125.551 178.664 125.645 181.378C125.694 182.692 125.479 184.002 125.011 185.231C124.543 186.46 123.832 187.582 122.921 188.529C122.01 189.474 120.915 190.222 119.705 190.73C118.494 191.237 117.193 191.493 115.881 191.481C113.159 191.463 110.548 190.397 108.592 188.504C106.635 186.612 105.482 184.039 105.372 181.319C105.327 180.003 105.548 178.692 106.023 177.464C106.498 176.236 107.216 175.117 108.134 174.173C109.052 173.229 110.151 172.481 111.366 171.973C112.581 171.465 113.885 171.207 115.202 171.216ZM115.202 169.076C113.603 169.066 112.018 169.379 110.543 169.997C109.068 170.614 107.733 171.523 106.618 172.669C105.503 173.816 104.631 175.175 104.054 176.667C103.477 178.158 103.207 179.751 103.261 181.349C103.392 184.638 104.786 187.75 107.153 190.037C109.52 192.324 112.678 193.611 115.969 193.629C117.564 193.635 119.143 193.319 120.611 192.698C122.08 192.078 123.408 191.166 124.515 190.019C125.621 188.871 126.484 187.511 127.051 186.021C127.619 184.531 127.878 182.942 127.814 181.349C127.704 178.07 126.329 174.962 123.978 172.674C121.627 170.386 118.482 169.097 115.202 169.076Z" fill="#C8C9D2"/>
</g>
<path d="M160.736 139.106H139.814C139.199 139.101 138.61 138.86 138.168 138.432C137.726 138.005 137.464 137.425 137.438 136.81C137.428 136.514 137.478 136.218 137.585 135.941C137.691 135.663 137.853 135.41 138.06 135.197C138.266 134.984 138.514 134.814 138.787 134.698C139.061 134.582 139.355 134.522 139.652 134.523H160.567C161.182 134.527 161.772 134.767 162.216 135.192C162.661 135.617 162.926 136.196 162.958 136.81C162.969 137.109 162.919 137.406 162.812 137.684C162.706 137.963 162.544 138.217 162.336 138.431C162.129 138.646 161.88 138.816 161.605 138.932C161.33 139.048 161.035 139.107 160.736 139.106Z" fill="#E0E0E0"/>
<path d="M184.884 139.106H170.714C170.099 139.101 169.508 138.86 169.065 138.433C168.622 138.006 168.359 137.425 168.33 136.81C168.321 136.514 168.37 136.218 168.477 135.941C168.584 135.663 168.746 135.41 168.952 135.197C169.159 134.984 169.406 134.814 169.68 134.698C169.953 134.582 170.247 134.522 170.544 134.523H184.721C185.336 134.528 185.925 134.767 186.368 135.193C186.811 135.618 187.075 136.197 187.105 136.81C187.116 137.109 187.067 137.406 186.96 137.684C186.853 137.963 186.691 138.217 186.484 138.431C186.276 138.646 186.027 138.816 185.753 138.932C185.478 139.048 185.182 139.107 184.884 139.106Z" fill="#E0E0E0"/>
<path d="M196.308 148.737H140.146C139.532 148.733 138.942 148.493 138.501 148.065C138.059 147.637 137.8 147.056 137.777 146.441C137.767 146.144 137.817 145.849 137.924 145.571C138.031 145.294 138.192 145.041 138.399 144.828C138.606 144.614 138.853 144.445 139.127 144.329C139.4 144.213 139.694 144.153 139.991 144.154H196.146C196.758 144.157 197.346 144.397 197.786 144.823C198.226 145.249 198.484 145.829 198.507 146.441C198.518 146.738 198.469 147.033 198.364 147.31C198.258 147.587 198.098 147.84 197.893 148.054C197.688 148.268 197.442 148.439 197.17 148.556C196.898 148.673 196.604 148.735 196.308 148.737Z" fill="#E0E0E0"/>
<g opacity="0.3">
<path d="M116.803 210.891C119.556 210.945 122.193 212.012 124.208 213.889C126.223 215.765 127.476 218.318 127.726 221.061C127.858 222.345 127.722 223.644 127.327 224.873C126.932 226.103 126.286 227.237 125.43 228.204C124.567 229.155 123.511 229.91 122.333 230.419C121.154 230.928 119.88 231.18 118.597 231.156C115.82 231.111 113.155 230.054 111.103 228.183C109.051 226.311 107.753 223.755 107.453 220.994C107.326 219.7 107.475 218.393 107.89 217.161C108.305 215.928 108.976 214.797 109.859 213.843C110.747 212.895 111.824 212.143 113.02 211.635C114.215 211.126 115.504 210.873 116.803 210.891ZM116.7 208.758C115.119 208.727 113.55 209.031 112.095 209.648C110.64 210.266 109.332 211.185 108.257 212.344C107.182 213.503 106.364 214.876 105.856 216.373C105.349 217.87 105.164 219.457 105.313 221.031C105.881 227.806 112.028 233.304 118.803 233.304C125.578 233.304 130.434 227.806 129.873 221.031C129.58 217.721 128.074 214.636 125.643 212.37C123.212 210.105 120.03 208.818 116.707 208.758H116.7Z" fill="#C8C9D2"/>
</g>
<path d="M205.902 183.858H141.098C140.801 183.858 140.507 183.917 140.234 184.033C139.96 184.149 139.713 184.319 139.506 184.532C139.299 184.746 139.138 184.999 139.031 185.276C138.924 185.553 138.874 185.849 138.884 186.146C138.911 186.758 139.171 187.337 139.612 187.763C140.053 188.188 140.64 188.428 141.253 188.434H206.087C206.384 188.434 206.678 188.374 206.951 188.258C207.225 188.142 207.472 187.973 207.679 187.759C207.885 187.546 208.047 187.293 208.154 187.016C208.26 186.739 208.31 186.443 208.301 186.146C208.277 185.527 208.014 184.942 207.566 184.515C207.118 184.087 206.521 183.852 205.902 183.858Z" fill="#E0E0E0"/>
<path d="M190.544 174.22H140.818C140.52 174.219 140.225 174.279 139.951 174.396C139.677 174.512 139.43 174.682 139.223 174.897C139.016 175.111 138.855 175.365 138.748 175.643C138.642 175.921 138.593 176.217 138.604 176.515C138.625 177.126 138.882 177.706 139.32 178.133C139.759 178.559 140.346 178.799 140.958 178.803H190.692C190.989 178.803 191.283 178.743 191.556 178.627C191.83 178.511 192.077 178.342 192.284 178.128C192.491 177.915 192.652 177.662 192.759 177.385C192.866 177.108 192.916 176.812 192.906 176.515C192.889 175.9 192.632 175.316 192.191 174.888C191.75 174.459 191.159 174.219 190.544 174.22Z" fill="#E0E0E0"/>
<path d="M115.076 148.869L114.206 147.438C112.294 144.316 108.302 141.534 106.929 140.714L107.962 138.884C110.673 140.525 113.088 142.611 115.106 145.054C118.242 140.84 122.825 136.508 129.032 131.829L130.368 133.556C123.726 138.552 119.017 143.15 115.999 147.526C115.696 147.976 115.386 148.427 115.076 148.869Z" fill="#C8C9D2"/>
<path d="M116.183 188.574C115.896 188.094 115.6 187.614 115.305 187.142C113.386 184.02 109.401 181.238 108.043 180.411L109.091 178.581C111.788 180.227 114.19 182.312 116.198 184.751C119.342 180.544 123.962 176.205 130.264 171.526L131.571 173.253C124.84 178.249 120.102 182.847 117.098 187.223L116.183 188.574Z" fill="#C8C9D2"/>
<path d="M118.715 228.367L117.741 226.935C115.615 223.813 111.497 221.031 110.08 220.212L111.039 218.382C113.828 220.034 116.341 222.113 118.486 224.544C121.379 220.337 125.777 215.998 131.888 211.326L133.268 213.053C126.744 218.049 122.264 222.647 119.541 227.024L118.715 228.367Z" fill="#C8C9D2"/>
<path d="M165.386 95.202C164.087 98.0359 162.756 100.867 161.393 103.696C164.203 105.094 166.605 107.191 168.368 109.787C170.131 112.383 171.196 115.389 171.46 118.515H181.268C180.618 108.486 174.168 99.7555 165.386 95.202Z" fill="#C8C9D2"/>
<path d="M128.021 118.53H137.829C137.588 115.756 138.094 112.968 139.293 110.455C140.492 107.941 142.341 105.794 144.648 104.235C142.739 101.401 140.801 98.5673 138.833 95.7334C131.674 100.368 127.394 108.862 128.021 118.53Z" fill="#263238"/>
<path d="M152.117 91.9105C147.411 91.864 142.794 93.1926 138.833 95.7334C140.801 98.5673 142.739 101.401 144.648 104.235C147.205 102.564 150.199 101.686 153.253 101.711C156.079 101.728 158.861 102.413 161.371 103.711C162.729 100.877 164.06 98.0458 165.364 95.2168C161.275 93.0736 156.733 91.9399 152.117 91.9105Z" fill="#C8C9D2"/>
<path opacity="0.5" d="M152.117 91.9105C147.411 91.864 142.794 93.1926 138.833 95.7334C140.801 98.5673 142.739 101.401 144.648 104.235C147.205 102.564 150.199 101.686 153.253 101.711C156.079 101.728 158.861 102.413 161.371 103.711C162.729 100.877 164.06 98.0458 165.364 95.2168C161.275 93.0736 156.733 91.9399 152.117 91.9105Z" fill="#263238"/>
<path d="M164.102 111.814C164.102 111.814 154.198 115.866 153.15 116.604C152.899 116.794 152.69 117.031 152.533 117.303C152.375 117.575 152.274 117.875 152.235 118.187C152.196 118.498 152.219 118.815 152.304 119.117C152.389 119.419 152.534 119.702 152.729 119.947C153.099 120.472 153.658 120.833 154.289 120.953C154.92 121.072 155.573 120.942 156.109 120.589C157.194 119.807 164.116 111.814 164.102 111.814ZM153.696 119.194C153.6 119.074 153.528 118.935 153.487 118.786C153.445 118.637 153.433 118.481 153.452 118.328C153.472 118.175 153.521 118.027 153.599 117.893C153.676 117.759 153.779 117.642 153.903 117.549C154.168 117.378 154.489 117.315 154.8 117.374C155.11 117.433 155.386 117.609 155.57 117.866C155.667 117.987 155.738 118.126 155.78 118.275C155.822 118.423 155.833 118.579 155.814 118.732C155.795 118.886 155.745 119.034 155.668 119.168C155.59 119.301 155.487 119.418 155.364 119.512C155.102 119.686 154.783 119.753 154.473 119.699C154.163 119.646 153.885 119.476 153.696 119.224V119.194Z" fill="#263238"/>
<path d="M175.843 107.128C175.892 107.572 175.845 108.022 175.706 108.446C175.567 108.871 175.339 109.261 175.037 109.591C174.735 109.92 174.367 110.182 173.956 110.358C173.545 110.534 173.102 110.62 172.655 110.611C171.708 110.593 170.801 110.228 170.105 109.586C169.409 108.945 168.972 108.07 168.877 107.128C168.826 106.686 168.87 106.239 169.007 105.816C169.143 105.392 169.369 105.003 169.668 104.674C169.967 104.345 170.333 104.083 170.741 103.907C171.149 103.731 171.591 103.644 172.035 103.652C172.984 103.668 173.895 104.03 174.596 104.67C175.298 105.31 175.741 106.184 175.843 107.128Z" fill="white"/>
<path d="M171.526 106.331C171.533 106.401 171.526 106.472 171.504 106.539C171.482 106.606 171.446 106.668 171.399 106.72C171.351 106.772 171.293 106.814 171.229 106.842C171.164 106.87 171.095 106.885 171.024 106.885C170.873 106.883 170.727 106.826 170.615 106.724C170.503 106.622 170.434 106.482 170.419 106.331C170.41 106.261 170.417 106.189 170.439 106.122C170.46 106.054 170.496 105.992 170.544 105.94C170.591 105.887 170.649 105.846 170.715 105.818C170.78 105.79 170.85 105.776 170.921 105.778C171.072 105.779 171.218 105.836 171.33 105.938C171.441 106.04 171.511 106.18 171.526 106.331Z" fill="#263238"/>
<path d="M174.168 106.331C174.175 106.402 174.168 106.473 174.145 106.541C174.123 106.608 174.086 106.67 174.038 106.723C173.99 106.775 173.931 106.816 173.866 106.844C173.8 106.872 173.73 106.886 173.659 106.885C173.508 106.88 173.364 106.822 173.253 106.72C173.142 106.619 173.071 106.481 173.054 106.331C173.045 106.26 173.052 106.188 173.074 106.12C173.096 106.052 173.132 105.99 173.181 105.937C173.229 105.884 173.288 105.843 173.354 105.815C173.42 105.788 173.491 105.775 173.563 105.778C173.714 105.779 173.86 105.836 173.972 105.938C174.083 106.04 174.153 106.18 174.168 106.331Z" fill="#263238"/>
<path d="M172.522 109.224C171.792 109.218 171.09 108.942 170.552 108.449C170.501 108.398 170.473 108.329 170.473 108.257C170.473 108.185 170.501 108.116 170.552 108.065C170.577 108.039 170.606 108.019 170.639 108.005C170.672 107.991 170.708 107.983 170.744 107.983C170.78 107.983 170.815 107.991 170.848 108.005C170.881 108.019 170.911 108.039 170.936 108.065C171.372 108.468 171.943 108.694 172.537 108.7C172.813 108.706 173.087 108.654 173.341 108.547C173.595 108.441 173.824 108.281 174.013 108.08C174.063 108.027 174.132 107.996 174.204 107.994C174.24 107.993 174.276 107.999 174.31 108.012C174.344 108.025 174.374 108.044 174.4 108.069C174.427 108.094 174.448 108.123 174.462 108.156C174.477 108.189 174.485 108.224 174.486 108.26C174.487 108.296 174.481 108.332 174.468 108.366C174.456 108.4 174.436 108.43 174.412 108.456C174.168 108.71 173.875 108.91 173.549 109.042C173.223 109.174 172.873 109.236 172.522 109.224Z" fill="#263238"/>
<path d="M156.176 96.7518C156.237 97.191 156.201 97.6381 156.073 98.0624C155.944 98.4867 155.725 98.8779 155.43 99.2092C155.135 99.5404 154.772 99.8036 154.366 99.9808C153.959 100.158 153.519 100.245 153.076 100.235C152.121 100.213 151.206 99.8493 150.497 99.2102C149.787 98.5711 149.33 97.699 149.209 96.7518C149.143 96.3147 149.174 95.8684 149.299 95.4444C149.424 95.0204 149.64 94.6289 149.933 94.2976C150.226 93.9662 150.587 93.7031 150.993 93.5265C151.398 93.35 151.837 93.2644 152.279 93.2758C153.235 93.2984 154.153 93.6604 154.866 94.2973C155.58 94.9341 156.044 95.8042 156.176 96.7518Z" fill="white"/>
<path d="M151.836 95.94C151.846 96.0093 151.84 96.0799 151.82 96.1469C151.8 96.2139 151.765 96.2757 151.719 96.3283C151.673 96.3808 151.616 96.4227 151.552 96.4512C151.488 96.4798 151.419 96.4942 151.349 96.4935C151.197 96.4897 151.051 96.432 150.937 96.3306C150.824 96.2292 150.75 96.0908 150.729 95.94C150.718 95.8705 150.723 95.7995 150.743 95.7319C150.762 95.6644 150.796 95.602 150.843 95.5492C150.889 95.4963 150.947 95.4544 151.011 95.4263C151.076 95.3982 151.146 95.3846 151.216 95.3865C151.369 95.3888 151.515 95.4461 151.629 95.5477C151.743 95.6494 151.817 95.7886 151.836 95.94Z" fill="#263238"/>
<path d="M154.471 95.94C154.48 96.0099 154.475 96.0811 154.454 96.1487C154.434 96.2162 154.399 96.2784 154.351 96.3311C154.304 96.3837 154.247 96.4255 154.182 96.4536C154.117 96.4816 154.047 96.4952 153.976 96.4935C153.825 96.4883 153.679 96.43 153.566 96.3289C153.453 96.2278 153.379 96.0902 153.356 95.94C153.347 95.8701 153.352 95.7989 153.373 95.7313C153.394 95.6638 153.429 95.6016 153.476 95.5489C153.523 95.4963 153.581 95.4545 153.645 95.4264C153.71 95.3984 153.78 95.3848 153.851 95.3865C154.003 95.3903 154.149 95.448 154.262 95.5494C154.376 95.6508 154.45 95.7892 154.471 95.94Z" fill="#263238"/>
<path d="M154.545 98.154H151.091C151.025 98.1433 150.965 98.1095 150.922 98.0588C150.879 98.0081 150.856 97.9438 150.856 97.8773C150.856 97.8108 150.879 97.7464 150.922 97.6957C150.965 97.645 151.025 97.6113 151.091 97.6005H154.545C154.61 97.6113 154.67 97.645 154.713 97.6957C154.756 97.7464 154.78 97.8108 154.78 97.8773C154.78 97.9438 154.756 98.0081 154.713 98.0588C154.67 98.1095 154.61 98.1433 154.545 98.154Z" fill="#263238"/>
<path d="M138.648 107.128C138.696 107.572 138.65 108.022 138.51 108.446C138.371 108.871 138.143 109.261 137.842 109.591C137.54 109.92 137.172 110.182 136.761 110.358C136.35 110.534 135.907 110.62 135.46 110.611C134.513 110.593 133.606 110.228 132.91 109.586C132.214 108.945 131.777 108.07 131.681 107.128C131.631 106.686 131.675 106.239 131.812 105.816C131.948 105.392 132.173 105.003 132.473 104.674C132.772 104.345 133.138 104.083 133.546 103.907C133.954 103.731 134.395 103.644 134.84 103.652C135.789 103.67 136.699 104.032 137.399 104.672C138.1 105.312 138.544 106.185 138.648 107.128Z" fill="white"/>
<path d="M134.316 106.331C134.323 106.401 134.316 106.472 134.294 106.539C134.272 106.606 134.236 106.668 134.189 106.72C134.141 106.772 134.083 106.814 134.019 106.842C133.954 106.87 133.885 106.885 133.814 106.885C133.663 106.883 133.517 106.826 133.405 106.724C133.294 106.622 133.224 106.482 133.209 106.331C133.201 106.261 133.207 106.189 133.229 106.122C133.25 106.054 133.286 105.992 133.334 105.94C133.381 105.887 133.439 105.846 133.505 105.818C133.57 105.79 133.64 105.776 133.711 105.778C133.862 105.779 134.008 105.836 134.12 105.938C134.231 106.04 134.301 106.18 134.316 106.331Z" fill="#263238"/>
<path d="M136.958 106.331C136.967 106.401 136.96 106.473 136.938 106.54C136.917 106.608 136.881 106.67 136.833 106.722C136.786 106.775 136.728 106.816 136.662 106.844C136.597 106.872 136.527 106.886 136.456 106.885C136.306 106.88 136.162 106.822 136.051 106.72C135.94 106.619 135.869 106.481 135.851 106.331C135.843 106.261 135.849 106.189 135.871 106.122C135.892 106.054 135.928 105.992 135.976 105.94C136.023 105.887 136.082 105.846 136.147 105.818C136.212 105.79 136.282 105.776 136.353 105.778C136.505 105.777 136.651 105.834 136.764 105.936C136.876 106.039 136.945 106.18 136.958 106.331Z" fill="#263238"/>
<path d="M133.578 109.224C133.544 109.224 133.51 109.218 133.478 109.206C133.447 109.193 133.418 109.174 133.393 109.15C133.343 109.099 133.315 109.03 133.315 108.958C133.315 108.886 133.343 108.818 133.393 108.766C133.633 108.512 133.922 108.31 134.244 108.173C134.565 108.035 134.911 107.966 135.261 107.969C135.992 107.977 136.694 108.256 137.231 108.752C137.257 108.776 137.278 108.806 137.292 108.839C137.306 108.872 137.313 108.908 137.313 108.944C137.313 108.979 137.306 109.015 137.292 109.048C137.278 109.081 137.257 109.111 137.231 109.135C137.178 109.185 137.108 109.212 137.036 109.212C136.963 109.212 136.893 109.185 136.84 109.135C136.403 108.728 135.828 108.501 135.231 108.501C134.956 108.495 134.683 108.546 134.428 108.651C134.174 108.757 133.945 108.914 133.755 109.113C133.712 109.171 133.649 109.211 133.578 109.224Z" fill="#263238"/>
<path d="M189.474 81.5933C187.172 76.7446 181.799 73.5343 176.006 73.5343H164.198C163.387 73.5701 162.581 73.391 161.862 73.0152C161.142 72.6394 160.535 72.0801 160.102 71.3941C158.456 68.3093 154.53 66.11 150.072 66.11C145.615 66.11 141.954 68.324 140.655 71.3941C140.117 72.693 138.574 73.5343 136.803 73.5343H124.995C119.202 73.5343 114.191 76.7446 112.449 81.5933C112.385 81.7625 112.359 81.9442 112.375 82.1246C112.394 82.5032 112.558 82.8599 112.833 83.1209C113.108 83.382 113.472 83.5273 113.851 83.5268H188.301C188.528 83.5274 188.752 83.4691 188.95 83.3577C189.149 83.2464 189.315 83.0857 189.433 82.8912C189.551 82.6967 189.617 82.475 189.624 82.2476C189.631 82.0202 189.58 81.7948 189.474 81.5933ZM150.552 74.8701C149.671 74.8519 148.829 74.5048 148.191 73.8971C147.553 73.2893 147.166 72.4649 147.106 71.586C147.076 71.1627 147.134 70.7379 147.277 70.3383C147.42 69.9387 147.644 69.5731 147.935 69.2645C148.227 68.9559 148.579 68.7111 148.969 68.5454C149.36 68.3797 149.781 68.2968 150.205 68.3019C151.092 68.3111 151.942 68.6543 152.586 69.2632C153.231 69.872 153.622 70.7015 153.681 71.586C153.711 72.0118 153.652 72.4392 153.507 72.8408C153.362 73.2424 153.136 73.6095 152.841 73.9185C152.547 74.2276 152.191 74.4718 151.797 74.6357C151.403 74.7995 150.979 74.8794 150.552 74.8701Z" fill="#263238"/>
<path d="M265.99 301.923C265.412 301.994 264.829 301.85 264.352 301.517C264.289 301.439 264.25 301.344 264.241 301.245C264.232 301.145 264.252 301.045 264.3 300.956C264.335 300.88 264.388 300.814 264.453 300.761C264.518 300.709 264.595 300.672 264.676 300.654C265.547 300.41 267.562 301.488 267.628 301.539C267.653 301.55 267.674 301.569 267.688 301.593C267.701 301.617 267.706 301.645 267.702 301.672C267.701 301.697 267.692 301.72 267.676 301.739C267.66 301.758 267.638 301.771 267.614 301.776C267.078 301.871 266.534 301.92 265.99 301.923ZM265.016 300.875C264.935 300.863 264.853 300.863 264.772 300.875C264.722 300.885 264.674 300.905 264.633 300.936C264.592 300.967 264.559 301.007 264.536 301.052C264.462 301.215 264.536 301.296 264.536 301.34C264.831 301.687 266.204 301.694 267.193 301.554C266.514 301.199 265.776 300.969 265.016 300.875Z" fill="#C8C9D2"/>
<path d="M267.614 301.776H267.562C266.876 301.48 265.444 300.3 265.473 299.694C265.473 299.547 265.562 299.37 265.916 299.333C266.181 299.31 266.445 299.389 266.654 299.554C267.206 300.133 267.58 300.858 267.732 301.643C267.741 301.661 267.745 301.681 267.745 301.702C267.745 301.722 267.741 301.742 267.732 301.761C267.715 301.773 267.695 301.78 267.674 301.783C267.654 301.786 267.633 301.783 267.614 301.776ZM266.042 299.562H265.968C265.739 299.562 265.732 299.672 265.732 299.702C265.732 300.071 266.698 300.993 267.414 301.392C267.274 300.762 266.96 300.184 266.507 299.724C266.373 299.623 266.209 299.571 266.042 299.576V299.562Z" fill="#C8C9D2"/>
<path d="M273.562 301.65H268.138L266.197 289.089H271.621L273.562 301.65Z" fill="#FFC3BD"/>
<path d="M268.101 301.023H274.005C274.116 301.026 274.224 301.063 274.313 301.129C274.403 301.195 274.47 301.287 274.506 301.392L276.115 306.211C276.149 306.319 276.158 306.433 276.141 306.545C276.124 306.657 276.081 306.764 276.016 306.856C275.951 306.949 275.866 307.026 275.767 307.08C275.667 307.135 275.557 307.165 275.444 307.17C273.304 307.17 270.204 307.015 267.518 307.015C264.381 307.015 264.662 307.185 260.979 307.185C258.765 307.185 257.887 304.934 258.765 304.728C262.905 303.805 263.385 303.702 266.794 301.443C267.176 301.172 267.632 301.026 268.101 301.023Z" fill="#263238"/>
<path opacity="0.2" d="M266.197 289.097L267.2 295.569H272.625L271.621 289.097H266.197Z" fill="black"/>
<path d="M272.942 166.382L269.252 170.109L274.905 172.109C274.905 172.109 277.119 169.068 275.562 166.987L272.942 166.382Z" fill="#FFC3BD"/>
<path d="M268.012 175.319L273.658 176.146L274.92 172.109L269.267 170.109L268.012 175.319Z" fill="#FFC3BD"/>
<path d="M275.407 120.493C275.887 121.526 276.27 122.405 276.654 123.364C277.038 124.323 277.392 125.246 277.761 126.191C278.462 128.087 279.089 130.021 279.672 131.977C280.266 133.955 280.758 135.963 281.148 137.991L281.429 139.541L281.658 141.12C281.739 141.644 281.791 142.19 281.835 142.729C281.879 143.268 281.953 143.755 281.953 144.434V145.393V146.242L281.909 147.076L281.827 147.866C281.732 148.928 281.591 149.925 281.458 150.936C281.163 152.928 280.824 154.877 280.447 156.84C279.665 160.699 278.809 164.471 277.776 168.271L271.053 166.943C271.481 163.194 271.923 159.386 272.278 155.637C272.447 153.762 272.632 151.895 272.735 150.065C272.78 149.165 272.831 148.249 272.831 147.386V146.737V146.139V145.541L272.78 145.054C272.746 144.665 272.692 144.278 272.617 143.895C272.551 143.482 272.492 143.069 272.396 142.648L272.123 141.386L271.805 140.117C271.348 138.419 270.831 136.714 270.241 135.01C269.65 133.305 268.994 131.608 268.3 129.925C267.96 129.076 267.606 128.235 267.237 127.408C266.868 126.582 266.499 125.718 266.138 125.002L275.407 120.493Z" fill="#263238"/>
<path d="M249.924 163.74C249.924 163.74 250.824 205.245 253.259 221.776C255.798 238.972 265.067 294.314 265.067 294.314H274.248C274.248 294.314 270.957 241.643 269.909 224.721C268.765 206.271 269.016 163.74 269.016 163.74H249.924Z" fill="#C8C9D2"/>
<path d="M262.861 290.654C262.817 290.654 263.805 294.469 263.805 294.469H274.979L274.898 291.067L262.861 290.654Z" fill="#263238"/>
<path d="M247.855 96.456C247.883 95.9963 247.662 95.6086 247.361 95.5901C247.06 95.5715 246.793 95.9292 246.765 96.3889C246.737 96.8486 246.958 97.2363 247.259 97.2548C247.56 97.2733 247.827 96.9157 247.855 96.456Z" fill="#263238"/>
<path d="M247.629 97.2536C247.03 98.6606 246.246 99.981 245.296 101.18C245.606 101.405 245.962 101.559 246.339 101.63C246.715 101.702 247.103 101.689 247.474 101.593L247.629 97.2536Z" fill="#ED847E"/>
<path d="M249.577 93.8736C249.52 93.8737 249.464 93.8584 249.414 93.8293C249.15 93.6216 248.84 93.4808 248.51 93.4191C248.179 93.3574 247.839 93.3766 247.518 93.4751C247.485 93.4881 247.45 93.4944 247.414 93.4936C247.379 93.4928 247.344 93.485 247.312 93.4706C247.279 93.4561 247.25 93.4354 247.226 93.4095C247.202 93.3837 247.183 93.3533 247.171 93.3201C247.159 93.2862 247.154 93.2503 247.157 93.2145C247.159 93.1787 247.168 93.1437 247.184 93.1115C247.2 93.0793 247.222 93.0505 247.249 93.0268C247.275 93.0031 247.307 92.9849 247.341 92.9732C247.745 92.8417 248.176 92.8105 248.595 92.8825C249.014 92.9545 249.409 93.1275 249.747 93.3865C249.802 93.4303 249.839 93.494 249.849 93.5643C249.858 93.6345 249.84 93.7057 249.798 93.7629C249.772 93.7971 249.739 93.8248 249.7 93.844C249.662 93.8632 249.62 93.8733 249.577 93.8736Z" fill="#263238"/>
<path d="M262.211 101.49C261.296 105.46 260.263 112.729 262.949 115.372C262.949 115.372 261.724 119.394 254.352 119.394C246.234 119.394 250.625 115.372 250.625 115.372C255.053 114.316 255.09 111.039 254.425 107.955L262.211 101.49Z" fill="#FFC3BD"/>
<path d="M265.805 117.231C266.602 115.615 267.481 113.755 265.805 113.18C263.975 112.538 253.857 111.888 250.307 113.084C249.359 113.325 248.546 113.934 248.046 114.775C247.546 115.617 247.402 116.622 247.643 117.571L265.805 117.231Z" fill="#C8C9D2"/>
<path d="M273.569 116.929C278.241 119.084 280.617 135.423 280.617 135.423L271.208 138.375C269.527 134.052 268.163 129.612 267.126 125.091C265.68 118.272 268.787 114.729 273.569 116.929Z" fill="#263238"/>
<path d="M215.74 142.353L211.4 138.619L207.496 144.301C207.496 144.301 211.002 147.113 214.876 145.962L215.74 142.353Z" fill="#FFC3BD"/>
<path d="M205.681 136.81L205.083 142.427L207.496 144.301L211.4 138.619L205.681 136.81Z" fill="#FFC3BD"/>
<path d="M263.208 95.4455C262.662 101.084 262.625 104.405 259.673 107.298C258.722 108.24 257.533 108.905 256.233 109.223C254.933 109.541 253.571 109.5 252.293 109.103C251.014 108.707 249.868 107.97 248.976 106.972C248.085 105.974 247.481 104.753 247.23 103.438C246.197 98.3754 247.23 90.0065 252.861 87.7629C254.06 87.2461 255.373 87.0534 256.67 87.2042C257.966 87.355 259.2 87.844 260.248 88.6222C261.296 89.4004 262.122 90.4404 262.641 91.638C263.16 92.8355 263.356 94.1486 263.208 95.4455Z" fill="#FFC3BD"/>
<path d="M251.658 97.2536C251.164 93.357 251.245 91.881 253.326 91.0175C251.164 90.5895 249.289 90.5304 248.396 89.2685C247.503 88.0065 247.289 84.7814 251.629 83.3054C251.23 84.0434 252.492 85.5785 256.485 84.191C260.477 82.8036 266.293 82.656 266.817 86.715C268.927 85.977 272.462 92.4935 268.293 97.2536C264.817 101.239 262.499 103.992 261.813 106.11C261.781 106.209 261.728 106.3 261.658 106.377C261.588 106.455 261.502 106.516 261.407 106.558C261.311 106.6 261.208 106.621 261.104 106.62C260.999 106.619 260.897 106.596 260.802 106.552C259.363 105.881 256.787 106.456 255.636 106.766C255.474 106.808 255.302 106.794 255.149 106.726C254.996 106.657 254.871 106.539 254.795 106.39C254.049 104.855 252.034 100.471 251.658 97.2536Z" fill="#263238"/>
<path d="M266.034 87.2094C266.034 87.2094 267.746 84.7962 271.03 86.5895C269.342 86.5108 267.652 86.7205 266.034 87.2094Z" fill="#263238"/>
<path d="M266.315 87.726C266.315 87.726 268.698 86.25 266.839 83.4678C266.953 84.908 266.774 86.3564 266.315 87.726Z" fill="#263238"/>
<path d="M254.418 97.416C254.159 98.8113 253.467 100.089 252.44 101.069C251.075 102.361 249.894 101.445 249.857 99.785C249.82 98.309 250.485 95.8145 252.071 95.1503C253.658 94.4861 254.699 95.7481 254.418 97.416Z" fill="#FFC3BD"/>
<path opacity="0.3" d="M250.684 186.803C251.215 199.186 252.049 213.562 253.259 221.776C253.724 224.906 254.403 229.289 255.215 234.374C258.477 216.573 260.425 193.636 250.684 186.803Z" fill="black"/>
<path d="M246.617 301.923C245.924 301.923 245.252 301.827 245.038 301.517C244.982 301.434 244.952 301.337 244.952 301.237C244.952 301.137 244.982 301.039 245.038 300.956C245.137 300.808 245.287 300.701 245.459 300.654C246.367 300.41 248.226 301.488 248.307 301.539C248.33 301.552 248.348 301.572 248.358 301.596C248.367 301.621 248.368 301.648 248.359 301.672C248.354 301.698 248.341 301.721 248.323 301.739C248.305 301.758 248.281 301.77 248.256 301.776C247.715 301.87 247.167 301.919 246.617 301.923ZM245.798 300.875C245.715 300.863 245.631 300.863 245.547 300.875C245.494 300.885 245.444 300.906 245.4 300.937C245.355 300.967 245.318 301.007 245.289 301.052C245.193 301.215 245.223 301.296 245.252 301.34C245.496 301.687 246.861 301.694 247.879 301.554C247.237 301.194 246.53 300.963 245.798 300.875Z" fill="#C8C9D2"/>
<path d="M248.263 301.776H248.212C247.569 301.48 246.307 300.3 246.433 299.694C246.433 299.547 246.566 299.37 246.92 299.333C247.052 299.316 247.185 299.327 247.312 299.365C247.44 299.404 247.557 299.468 247.658 299.554C248.33 300.122 248.396 301.584 248.396 301.643C248.395 301.666 248.39 301.688 248.38 301.708C248.37 301.729 248.355 301.747 248.337 301.761C248.314 301.772 248.289 301.777 248.263 301.776ZM247.016 299.562H246.942C246.706 299.562 246.691 299.672 246.684 299.702C246.61 300.071 247.459 300.993 248.116 301.392C248.075 300.781 247.845 300.198 247.459 299.724C247.333 299.624 247.176 299.572 247.016 299.576V299.562Z" fill="#C8C9D2"/>
<path d="M254.226 301.65H248.809L248.706 289.089H254.13L254.226 301.65Z" fill="#FFC3BD"/>
<path d="M248.861 301.023H254.765C254.871 301.021 254.973 301.058 255.055 301.125C255.136 301.193 255.19 301.288 255.208 301.392L256.116 306.211C256.136 306.33 256.13 306.451 256.099 306.568C256.067 306.684 256.01 306.792 255.931 306.883C255.853 306.975 255.756 307.048 255.646 307.098C255.536 307.147 255.417 307.172 255.296 307.17C253.163 307.17 250.079 307.015 247.4 307.015C244.256 307.015 241.54 307.185 237.857 307.185C235.643 307.185 235.097 304.934 236.035 304.728C240.308 303.805 243.776 303.702 247.518 301.443C247.919 301.184 248.383 301.039 248.861 301.023Z" fill="#263238"/>
<path opacity="0.2" d="M248.713 289.097L248.758 295.569H254.182L254.138 289.097H248.713Z" fill="black"/>
<path d="M240.249 163.74C240.249 163.74 238.035 204.278 238.079 220.81C238.079 238.005 246.787 294.314 246.787 294.314H255.968C255.968 294.314 253.577 239.009 254.61 222.138C255.71 203.688 261.038 163.755 261.038 163.755L240.249 163.74Z" fill="#C8C9D2"/>
<path d="M245.149 290.654C245.105 290.654 245.525 294.469 245.525 294.469H256.699L257.127 291.067L245.149 290.654Z" fill="#263238"/>
<path d="M242.226 116.877C242.226 116.877 232.987 140.22 237.009 180.566H270.75C271.104 176.138 267.577 137.571 272.61 116.597C269.417 115.979 266.188 115.569 262.942 115.372C258.837 115.135 254.722 115.135 250.617 115.372C247.786 115.656 244.98 116.16 242.226 116.877Z" fill="#263238"/>
<path opacity="0.2" d="M237.451 138.006C236.95 141.696 236.536 145.91 236.271 150.552C242.824 144.53 245.068 129.526 245.068 129.526L237.451 138.006Z" fill="black"/>
<path d="M245.702 127.991C244.374 131.445 243.031 134.774 241.555 138.117C240.079 141.46 238.551 144.759 236.832 148.065L236.16 149.297L235.821 149.917C235.68 150.168 235.695 150.183 235.311 150.825C234.65 151.866 233.732 152.719 232.647 153.305C231.75 153.777 230.77 154.072 229.762 154.176C228.375 154.303 226.977 154.19 225.629 153.843C224.563 153.58 223.517 153.239 222.5 152.825C220.674 152.069 218.905 151.181 217.208 150.168C216.374 149.689 215.577 149.172 214.788 148.692C213.998 148.213 213.282 147.6 212.433 147.01L216.418 140.899C219.278 142.475 222.28 143.777 225.385 144.788C226.044 144.992 226.718 145.145 227.4 145.246C227.789 145.329 228.191 145.329 228.581 145.246C228.625 145.246 228.485 145.201 228.241 145.327C227.945 145.478 227.691 145.701 227.503 145.976C227.348 146.235 227.548 145.851 227.614 145.703L227.88 145.12L228.411 143.962C229.813 140.833 231.112 137.593 232.374 134.368C233.636 131.143 234.861 127.777 235.99 124.523L245.702 127.991Z" fill="#263238"/>
<path d="M249.37 119.327C251.097 124.154 238.876 143.585 238.876 143.585L231.629 136.405C231.629 136.405 233.481 130.301 235.924 122.951C238.33 115.726 247.724 114.715 249.37 119.327Z" fill="#263238"/>
</svg>
